<?xml version="1.0" encoding="UTF-8" standalone="no"?>
<!-- Created with Inkscape (http://www.inkscape.org/) -->

<svg
   width="1920"
   height="1080"
   viewBox="0 0 1920 1080"
   version="1.1"
   id="svg1"
   sodipodi:docname="playlist-not-found.svg"
   inkscape:export-filename="local.svg"
   inkscape:export-xdpi="96"
   inkscape:export-ydpi="96"
   inkscape:version="1.3.2 (091e20ef0f, 2023-11-25, custom)"
   xmlns:inkscape="http://www.inkscape.org/namespaces/inkscape"
   xmlns:sodipodi="http://sodipodi.sourceforge.net/DTD/sodipodi-0.dtd"
   xmlns="http://www.w3.org/2000/svg"
   xmlns:svg="http://www.w3.org/2000/svg">
  <sodipodi:namedview
     id="namedview1"
     pagecolor="#ffffff"
     bordercolor="#000000"
     borderopacity="0.25"
     inkscape:showpageshadow="2"
     inkscape:pageopacity="0.0"
     inkscape:pagecheckerboard="0"
     inkscape:deskcolor="#d1d1d1"
     inkscape:document-units="px"
     inkscape:zoom="0.27933432"
     inkscape:cx="476.13197"
     inkscape:cy="451.0724"
     inkscape:window-width="1902"
     inkscape:window-height="1030"
     inkscape:window-x="6"
     inkscape:window-y="38"
     inkscape:window-maximized="1"
     inkscape:current-layer="layer1"
     showgrid="false" />
  <defs
     id="defs1" />
  <g
     inkscape:label="Layer 1"
     inkscape:groupmode="layer"
     id="layer1">
    <rect
       style="fill:#000000;fill-opacity:1;stroke:none;stroke-width:10.1816;-inkscape-stroke:none"
       id="rect1"
       width="1920"
       height="1080"
       x="0"
       y="0" />
    <path
       id="path1"
       style="fill:#444444;fill-opacity:1;stroke:none;stroke-width:10.1815;-inkscape-stroke:none"
       d="M 960,104.01172 A 435.98779,435.98779 0 0 0 524.01172,540 435.98779,435.98779 0 0 0 960,975.98828 435.98779,435.98779 0 0 0 1395.9883,540 435.98779,435.98779 0 0 0 960,104.01172 Z m 0,58.24609 A 377.7421,377.7421 0 0 1 1337.7422,540 377.7421,377.7421 0 0 1 960,917.74219 377.7421,377.7421 0 0 1 582.25781,540 377.7421,377.7421 0 0 1 960,162.25781 Z" />
    <path
       style="font-weight:bold;font-size:546.354px;font-family:'Noto Sans';-inkscape-font-specification:'Noto Sans Bold';fill:#888888;stroke-width:8.14849"
       d="m 786.20994,334.02454 h 203.79005 v 120.19788 l 16.39061,16.39062 h 120.1979 v 34.96666 h 34.4203 v -74.8505 l -5.4636,-12.56615 -112.5489,-113.09527 -10.9271,-3.82448 H 767.63391 l -16.39062,16.39062 v 444.73216 l 16.39062,16.39062 H 887.83179 V 743.79004 H 786.20994 Z m 238.21036,0 102.1682,103.80726 H 1024.4203 Z M 1212.3661,540 H 939.18906 l -16.39062,16.39062 v 205.97546 l 16.39062,16.39062 h 273.17704 l 16.3906,-16.39062 V 556.39062 Z m -16.3907,34.4203 v 136.5885 l -56.8208,-54.6354 h -23.4932 l -39.8838,40.4302 -73.2115,-73.21144 h -23.49319 l -23.49323,21.85416 V 574.4203 Z m -96.7046,145.87652 27.3177,-27.3177 52.9963,50.81092 h -54.6354 z m -143.69112,23.49322 v -49.17186 l 34.42031,-34.4203 85.77761,83.59216 z M 1142.9791,625.77758 q 7.1026,0 12.5661,-5.46354 5.4636,-5.46354 5.4636,-12.01979 0,-6.55625 -5.4636,-12.01979 -5.4635,-5.46354 -12.5661,-5.46354 -7.1026,0 -12.0198,5.46354 -4.3708,5.46354 -4.3708,12.01979 0,6.55625 4.3708,12.01979 4.9172,5.46354 12.0198,5.46354 z"
       id="text1"
       aria-label="" />
  </g>
</svg>
